<svg width="32" height="32" viewBox="0 0 32 32" fill="none" xmlns="http://www.w3.org/2000/svg">
<g clip-path="url(#clip0_8_231)">
<path d="M13.7158 13.7142H18.2872V18.2856H13.7158V13.7142Z" fill="#09283C"/>
<path opacity="0.6" d="M13.7158 18.2858H18.2872V22.8572H13.7158V18.2858Z" fill="#09283C"/>
<path opacity="0.32" d="M18.2842 18.2858H22.8556V22.8572H18.2842V18.2858Z" fill="#09283C"/>
<path opacity="0.07" d="M22.8564 18.2858H27.4279V22.8572H22.8564V18.2858Z" fill="#09283C"/>
<path opacity="0.32" d="M9.14355 18.2858H13.715V22.8572H9.14355V18.2858Z" fill="#09283C"/>
<path opacity="0.07" d="M4.57129 18.2858H9.14272V22.8572H4.57129V18.2858Z" fill="#09283C"/>
<path opacity="0.32" d="M13.7158 22.8571H18.2872V27.4285H13.7158V22.8571Z" fill="#09283C"/>
<path opacity="0.07" d="M9.14355 22.8571H13.715V27.4285H9.14355V22.8571Z" fill="#09283C"/>
<path opacity="0.07" d="M18.2842 22.8571H22.8556V27.4285H18.2842V22.8571Z" fill="#09283C"/>
<path opacity="0.07" d="M13.7158 27.4287H18.2872V32.0002H13.7158V27.4287Z" fill="#09283C"/>
<path opacity="0.6" d="M9.14355 13.7142H13.715V18.2856H9.14355V13.7142Z" fill="#09283C"/>
<path opacity="0.32" d="M4.57129 13.7142H9.14272V18.2856H4.57129V13.7142Z" fill="#09283C"/>
<path opacity="0.07" d="M0 13.7142H4.57143V18.2856H0V13.7142Z" fill="#09283C"/>
<path opacity="0.6" d="M18.2842 13.7142H22.8556V18.2856H18.2842V13.7142Z" fill="#09283C"/>
<path opacity="0.32" d="M22.8564 13.7142H27.4279V18.2856H22.8564V13.7142Z" fill="#09283C"/>
<path opacity="0.07" d="M27.4287 13.7142H32.0001V18.2856H27.4287V13.7142Z" fill="#09283C"/>
<path opacity="0.6" d="M13.7158 9.14293H18.2872V13.7144H13.7158V9.14293Z" fill="#09283C"/>
<path opacity="0.32" d="M9.14355 9.14293H13.715V13.7144H9.14355V9.14293Z" fill="#09283C"/>
<path opacity="0.07" d="M9.14355 4.57129H13.715V9.14271H9.14355V4.57129Z" fill="#09283C"/>
<path opacity="0.07" d="M4.57129 9.14293H9.14272V13.7144H4.57129V9.14293Z" fill="#09283C"/>
<path opacity="0.32" d="M18.2842 9.14293H22.8556V13.7144H18.2842V9.14293Z" fill="#09283C"/>
<path opacity="0.07" d="M18.2842 4.57129H22.8556V9.14271H18.2842V4.57129Z" fill="#09283C"/>
<path opacity="0.07" d="M22.8564 9.14293H27.4279V13.7144H22.8564V9.14293Z" fill="#09283C"/>
<path opacity="0.32" d="M13.7158 4.57129H18.2872V9.14271H13.7158V4.57129Z" fill="#09283C"/>
<path opacity="0.07" d="M13.7158 0H18.2872V4.57143H13.7158V0Z" fill="#09283C"/>
</g>
<defs>
<clipPath id="clip0_8_231">
<rect width="32" height="32" fill="white"/>
</clipPath>
</defs>
</svg>
